<svg width="60" height="60" viewBox="0 0 60 60" fill="none" xmlns="http://www.w3.org/2000/svg">
<path d="M4.68737 46.9811C2.12372 45.719 0.5 43.1098 0.5 40.2523L0.5 19.7477C0.5 16.8902 2.12373 14.281 4.68737 13.0189L26.6874 2.18814C28.7761 1.15985 31.2239 1.15985 33.3126 2.18814L55.3126 13.0189C57.8763 14.281 59.5 16.8902 59.5 19.7477V40.2523C59.5 43.1098 57.8763 45.719 55.3126 46.9811L33.3126 57.8119C31.2239 58.8402 28.7761 58.8402 26.6874 57.8119L4.68737 46.9811Z" fill="white" stroke="#BDBDBD"/>
<path d="M16.0781 13H22.7812L30.4453 38.125L38.0156 13H44.7188L33.1172 47.125H27.6797L16.0781 13ZM12 13H18.9375L20.2266 39.1562V47.125H12V13ZM41.8594 13H48.8203V47.125H40.5703V39.1562L41.8594 13Z" fill="#333333"/>
<path d="M30.1484 39.0859L37.25 13H46.4609L34.9531 47.125H29L30.1484 39.0859ZM23.7031 13L30.8047 39.0859L32 47.125H25.9766L14.5391 13H23.7031Z" fill="#6FCF97"/>
</svg>
